<?xml version="1.0" standalone="no"?>
<!DOCTYPE svg PUBLIC "-//W3C//DTD SVG 20010904//EN"
 "http://www.w3.org/TR/2001/REC-SVG-20010904/DTD/svg10.dtd">
<svg version="1.0" xmlns="http://www.w3.org/2000/svg"
 width="640.000000pt" height="640.000000pt" viewBox="0 0 640.000000 640.000000"
 preserveAspectRatio="xMidYMid meet">
<metadata>
Created by potrace 1.14, written by Peter Selinger 2001-2017
</metadata>
<g transform="translate(0.000000,640.000000) scale(0.100000,-0.100000)"
fill="#000000" stroke="none">
<path d="M5173 6213 c-18 -21 -268 -282 -448 -468 -27 -29 -99 -103 -158 -164
l-108 -113 31 -31 c53 -54 160 -177 193 -222 4 -5 21 -28 38 -50 181 -233 370
-590 464 -880 28 -86 62 -202 69 -235 3 -14 11 -47 17 -75 6 -27 12 -59 14
-70 2 -11 4 -22 5 -25 3 -6 3 -10 14 -80 5 -30 10 -64 12 -75 6 -31 23 -182
29 -265 7 -88 8 -411 1 -521 -4 -70 -13 -159 -21 -219 -2 -14 -7 -47 -10 -75
-6 -47 -9 -66 -20 -125 -3 -14 -8 -38 -10 -55 -3 -16 -12 -57 -21 -90 -8 -33
-16 -69 -19 -80 -10 -47 -56 -201 -65 -217 -6 -10 -10 -22 -10 -28 0 -14 -68
-189 -86 -222 -8 -16 -12 -28 -7 -28 4 0 4 -4 -2 -8 -5 -4 -36 -59 -67 -122
-32 -63 -68 -133 -80 -155 -28 -49 -205 -314 -221 -330 -7 -7 -23 -27 -37 -45
-14 -18 -29 -38 -35 -44 -5 -6 -35 -41 -65 -76 -30 -36 -60 -69 -67 -73 -7 -4
-13 -13 -13 -20 0 -7 96 -109 213 -228 116 -119 282 -289 368 -377 86 -88 161
-157 166 -153 27 19 268 306 336 401 9 14 37 53 62 87 25 35 45 67 45 72 0 5
4 11 8 13 11 4 122 182 122 195 0 6 4 13 9 15 10 3 179 331 219 423 47 111
102 257 141 375 48 150 79 261 97 350 3 14 11 50 19 81 8 31 17 71 19 90 3 19
7 46 10 59 4 14 9 40 11 58 5 35 12 80 20 128 2 17 7 57 10 90 4 32 8 70 11
84 26 148 25 796 -1 1010 -9 77 -16 127 -21 170 -3 25 -13 83 -21 130 -26 148
-30 163 -55 270 -11 47 -21 92 -23 101 -2 9 -13 49 -25 90 -12 41 -23 79 -25
84 -1 6 -5 17 -8 25 -3 8 -20 58 -38 110 -29 88 -78 218 -98 265 -48 108 -70
154 -113 240 -59 119 -106 203 -168 305 -26 41 -53 86 -61 100 -8 14 -16 27
-19 30 -3 3 -43 58 -89 123 -45 65 -91 128 -101 140 -10 12 -53 65 -96 117
-82 101 -210 241 -217 239 -1 0 -12 -12 -24 -26z"/>
<path d="M3627 4889 l-377 -379 34 -38 c99 -108 235 -290 253 -339 3 -10 17
-35 30 -55 13 -21 20 -38 16 -38 -5 0 -3 -4 3 -8 11 -7 86 -185 99 -237 5 -16
10 -36 12 -42 1 -7 5 -21 7 -30 3 -10 5 -18 6 -18 2 0 4 -10 24 -115 8 -47 17
-106 19 -131 2 -25 6 -50 9 -55 12 -25 -1 -407 -18 -495 -3 -19 -7 -45 -9 -59
-6 -56 -47 -206 -81 -297 -70 -191 -168 -355 -311 -525 -40 -48 -73 -91 -73
-95 0 -4 103 -108 230 -232 126 -124 296 -292 378 -374 82 -81 153 -147 157
-147 12 0 142 145 210 235 25 33 50 66 57 74 20 23 95 138 144 218 76 126 224
433 207 433 -3 0 -1 6 5 12 10 13 61 163 83 248 7 25 13 47 14 50 1 3 5 23 10
45 13 56 12 55 15 58 1 1 3 11 4 22 2 11 6 34 9 50 4 17 9 44 11 60 7 48 18
119 22 137 21 116 25 738 4 738 -3 0 -5 15 -5 33 -1 42 -15 145 -29 202 -2 6
-6 33 -11 60 -4 28 -10 54 -13 60 -3 5 -7 16 -8 25 -3 22 -20 85 -39 150 -1 3
-5 19 -10 35 -4 17 -10 35 -14 40 -3 6 -7 18 -8 28 -2 9 -16 50 -32 90 -30 73
-42 108 -42 117 0 3 -6 12 -13 20 -7 8 -19 31 -26 50 -8 19 -27 59 -43 89 -15
30 -40 77 -55 105 -43 83 -185 288 -271 393 -99 122 -184 213 -196 212 -6 0
-180 -171 -388 -380z"/>
<path d="M384 4656 c-141 -44 -256 -137 -317 -254 -61 -116 -66 -151 -67 -483
l-1 -298 1020 0 c561 0 1037 -3 1058 -7 97 -17 220 -115 263 -209 92 -201 16
-430 -174 -530 -27 -14 -65 -28 -85 -32 -20 -4 -496 -7 -1059 -7 l-1022 -1 0
-962 1 -962 27 -78 c15 -43 30 -79 34 -81 5 -2 8 -9 8 -15 0 -7 10 -25 23 -40
131 -167 292 -240 472 -214 78 11 118 27 204 77 53 30 132 118 168 186 63 119
66 143 67 614 l1 425 515 1 c551 2 675 7 770 31 14 3 33 8 44 10 40 7 173 56
243 88 60 28 204 115 223 135 3 3 25 21 50 40 52 41 171 160 209 210 14 19 33
42 41 51 8 8 21 24 27 35 7 10 23 35 36 55 38 57 136 255 142 289 2 8 11 42
21 75 20 69 20 66 29 125 4 24 8 47 10 50 7 11 19 185 18 265 -1 126 -20 282
-44 361 -5 17 -11 40 -14 50 -7 37 -45 137 -56 150 -6 8 -9 14 -6 14 7 0 -90
188 -104 200 -3 3 -21 27 -40 55 -89 128 -256 292 -391 383 -92 63 -361 182
-376 167 -2 -2 -15 1 -29 6 -14 5 -42 12 -62 15 -20 3 -47 8 -61 12 -14 3
-419 7 -900 8 -695 2 -883 0 -916 -10z"/>
</g>
</svg>
